<svg width="11" height="16" viewBox="0 0 11 16" fill="none" xmlns="http://www.w3.org/2000/svg">
<path d="M4.82643 13.6682L5.00341 13.8456L5.18039 13.6682L8.75519 10.0851C8.80967 10.0306 8.87435 9.98742 8.94554 9.95793C9.01673 9.92844 9.09302 9.91327 9.17008 9.91327C9.24713 9.91327 9.32343 9.92844 9.39461 9.95793C9.4658 9.98742 9.53048 10.0306 9.58497 10.0851C9.63945 10.1396 9.68267 10.2043 9.71216 10.2755C9.74164 10.3467 9.75682 10.423 9.75682 10.5C9.75682 10.5771 9.74164 10.6534 9.71216 10.7245C9.68267 10.7957 9.63945 10.8604 9.58497 10.9149L5.4183 15.0816L5.41758 15.0823C5.36335 15.137 5.29883 15.1804 5.22775 15.21C5.15666 15.2396 5.08042 15.2548 5.00341 15.2548C4.9264 15.2548 4.85016 15.2396 4.77907 15.21C4.70799 15.1804 4.64347 15.137 4.58924 15.0823L4.58852 15.0816L0.421853 10.9149C0.311818 10.8049 0.25 10.6556 0.25 10.5C0.25 10.3444 0.311817 10.1952 0.421853 10.0851C0.531889 9.97508 0.681129 9.91327 0.836743 9.91327C0.992313 9.91327 1.14151 9.97505 1.25154 10.085C1.25157 10.0851 1.2516 10.0851 1.25163 10.0851L4.82643 13.6682ZM5.18039 2.33177L5.00341 2.15438L4.82643 2.33177L1.25163 5.9149C1.2516 5.91493 1.25157 5.91496 1.25154 5.91499C1.14151 6.02497 0.992313 6.08675 0.836743 6.08675C0.681129 6.08675 0.531889 6.02494 0.421853 5.9149C0.311817 5.80486 0.25 5.65562 0.25 5.50001C0.25 5.3444 0.311817 5.19516 0.421853 5.08512L4.58852 0.918455L4.58924 0.917727C4.64347 0.863052 4.70799 0.819656 4.77907 0.790041C4.85016 0.760426 4.9264 0.745178 5.00341 0.745178C5.08042 0.745178 5.15666 0.760426 5.22775 0.790041C5.29883 0.819656 5.36335 0.863052 5.41757 0.917729L5.4183 0.918453L9.58496 5.08512L9.58569 5.08584C9.64037 5.14007 9.68377 5.20459 9.71338 5.27567C9.74299 5.34676 9.75824 5.423 9.75824 5.50001C9.75824 5.57702 9.74299 5.65326 9.71338 5.72435C9.68377 5.79543 9.64037 5.85995 9.58569 5.91418L9.58424 5.91563C9.53001 5.9703 9.4655 6.0137 9.39441 6.04331C9.32333 6.07293 9.24708 6.08818 9.17008 6.08818C9.09307 6.08818 9.01682 6.07293 8.94574 6.04331C8.87466 6.0137 8.81014 5.9703 8.75591 5.91563L8.75539 5.91511L5.18039 2.33177Z" fill="black" stroke="white" stroke-width="0.5"/>
</svg>
